<?xml version="1.0" standalone="no"?>
<!DOCTYPE svg PUBLIC "-//W3C//DTD SVG 1.1//EN" "http://www.w3.org/Graphics/SVG/1.1/DTD/svg11.dtd" >
<svg xmlns="http://www.w3.org/2000/svg">
<metadata>Generated by IcoMoon</metadata>
<defs>
<font id="bancovi" horiz-adv-x="1024">
<font-face units-per-em="1024" ascent="960" descent="-64" />
<missing-glyph horiz-adv-x="1024" />
<glyph unicode="&#x20;" horiz-adv-x="512" d="" />
<glyph unicode="&#xe900;" glyph-name="add" d="M512 883.2c-240.354 0-435.2-194.846-435.2-435.2s194.846-435.2 435.2-435.2c240.354 0 435.2 194.846 435.2 435.2v0 0c0 0.030 0 0.066 0 0.102 0 240.298-194.8 435.098-435.098 435.098-0.036 0-0.072 0-0.108 0h0.006zM764.723 398.848c-0.115-11.583-9.503-20.935-21.089-20.992h-161.388v-161.485c-0.115-11.604-9.491-20.98-21.083-21.094h-98.315c-11.604 0.115-20.98 9.491-21.094 21.083v161.496h-161.382c-11.591 0.057-20.979 9.409-21.094 20.981v98.315c0.058 11.627 9.468 21.037 21.089 21.094h161.491v161.382c0 0.030 0 0.066 0 0.102 0 11.594 9.398 20.992 20.992 20.992 0 0 0 0 0 0h98.304c11.65 0 21.094-9.444 21.094-21.094v0-161.382h161.382c11.627-0.058 21.037-9.468 21.094-21.089v-0.006z" />
<glyph unicode="&#xe901;" glyph-name="arrow-down-o" d="M864.461 732.57l-352.461-351.744-352.461 351.744-108.339-108.339 460.8-460.8 460.8 460.8z" />
<glyph unicode="&#xe902;" glyph-name="arrow-left" d="M796.57 95.539l-351.744 352.461 351.744 352.461-108.339 108.339-460.8-460.8 460.8-460.8z" />
<glyph unicode="&#xe903;" glyph-name="bell" d="M330.445 762.573l-58.778 58.675c-98.515-75.189-163.108-190.495-169.231-321.091l-0.036-0.957h81.92c6.473 108.88 62.224 203.524 145.068 262.656l1.057 0.717zM839.68 499.2h81.92c-6.561 131.453-71.039 246.621-168.247 321.295l-1.020 0.753-58.368-58.778c83.601-60.217 139.13-154.901 145.668-262.808l0.047-0.975zM758.682 478.72c0 126.157-67.379 231.731-184.32 259.686v27.034c0.008 0.366 0.012 0.797 0.012 1.229 0 33.939-27.513 61.452-61.452 61.452-33.507 0-60.751-26.817-61.439-60.159l-0.001-0.064v-30.72c-117.862-27.955-184.32-133.12-184.32-259.686v-204.8l-81.92-81.92v-40.96h655.462v40.96l-81.92 81.92zM512 26.317c0.028 0 0.061 0 0.093 0 5.776 0 11.396 0.672 16.785 1.941l-0.494-0.098c26.788 5.847 48.4 23.95 58.978 48.003l0.21 0.535c3.889 9.205 6.149 19.908 6.149 31.139 0 0.321-0.002 0.641-0.006 0.961v-0.049h-163.84c0.173-45.349 36.801-82.085 82.092-82.432h0.033z" />
<glyph unicode="&#xe904;" glyph-name="bin" d="M238.899 129.434c0.174-50.206 40.827-90.86 91.017-91.034h364.151c50.206 0.174 90.86 40.827 91.034 91.017v546.116h-546.202zM350.925 453.427l64.102 64.205 96.973-96.461 96.461 96.461 64.205-64.205-96.461-96.461 96.461-96.461-64.205-64.205-96.461 96.563-96.461-96.563-64.205 64.205 96.461 96.461zM671.334 811.827l-45.568 45.773h-227.533l-45.568-45.568h-159.232v-90.931h637.133v90.931z" />
<glyph unicode="&#xe905;" glyph-name="boxtools" d="M955.904 532.685l-81.408 81.408c-10.418 10.439-24.822 16.896-40.734 16.896-0.079 0-0.159 0-0.238 0h-91.124v144.077c0 47.675-38.648 86.323-86.323 86.323-0.036 0-0.072 0-0.108 0h-287.943c-0.030 0-0.066 0-0.102 0-47.675 0-86.323-38.648-86.323-86.323v0-144.077h-91.341c-0.047 0-0.104 0-0.16 0-15.914 0-30.33-6.414-40.804-16.798l0.004 0.004-81.408-81.92c-10.437-10.372-16.897-24.735-16.897-40.607 0-0.124 0-0.248 0.001-0.372v0.019-148.275h230.605v28.774c0 0 0 0 0 0 0 15.912 12.87 28.818 28.769 28.877h57.657c15.892 0 28.774-12.883 28.774-28.774v0 0-28.774h230.4v28.672c0 0 0 0 0 0 0 15.912 12.87 28.818 28.769 28.877h57.657c15.892 0 28.774-12.883 28.774-28.774v0 0-28.774h230.4v148.89c0 0.027 0 0.058 0 0.090 0 15.858-6.46 30.207-16.892 40.56l-0.004 0.004zM627.2 630.989h-230.4v115.2h230.4zM742.4 256.614c0-15.892-12.883-28.774-28.774-28.774v0h-57.651c-15.892 0-28.774 12.883-28.774 28.774v0 0 28.877h-230.4v-28.877c0-15.892-12.883-28.774-28.774-28.774v0h-57.651c-15.892 0-28.774 12.883-28.774 28.774v0 28.877h-230.4v-172.851c0-31.783 25.765-57.549 57.549-57.549v0h806.4c0.030 0 0.066 0 0.102 0 31.783 0 57.549 25.765 57.549 57.549 0 0 0 0 0 0v0 172.851h-230.4z" />
<glyph unicode="&#xe906;" glyph-name="cellphone" d="M691.2 857.6h-358.4c-42.415 0-76.8-34.385-76.8-76.8v0-665.6c0-42.415 34.385-76.8 76.8-76.8v0h358.4c42.415 0 76.8 34.385 76.8 76.8v0 665.6c0 42.415-34.385 76.8-76.8 76.8v0zM512 89.6c-28.277 0-51.2 22.923-51.2 51.2s22.923 51.2 51.2 51.2c28.277 0 51.2-22.923 51.2-51.2v0c0-28.277-22.923-51.2-51.2-51.2v0zM691.2 262.451c0-10.632-8.619-19.251-19.251-19.251v0h-319.898c-10.632 0-19.251 8.619-19.251 19.251v0 499.098c0 10.632 8.619 19.251 19.251 19.251h319.898c10.632 0 19.251-8.619 19.251-19.251v0z" />
<glyph unicode="&#xe907;" glyph-name="chat" d="M878.080 312.832c0.054 9.402 2.633 18.191 7.093 25.736l-0.13-0.238c1.445 2.462 2.9 4.569 4.489 6.563l-0.086-0.112c36.092 53.052 57.66 118.513 57.754 189.006v0.024c-3.707 193.835-161.712 349.547-356.086 349.547-2.218 0-4.431-0.020-6.639-0.061l0.332 0.005h-1.126c-1.516 0.023-3.306 0.036-5.099 0.036-169.957 0-312.472-117.495-350.749-275.689l-0.504-2.465c-4.947-21.359-7.783-45.884-7.783-71.072 0-0.214 0-0.428 0.001-0.641v0.033c0.639-195.532 159.296-353.794 354.917-353.794 0.433 0 0.865 0.001 1.298 0.002h1.776c35.833 1.651 69.63 7.414 101.863 16.84l-3.047-0.764c23.654 6.554 47.002 15.053 53.146 17.408 5.849 2.319 12.626 3.663 19.716 3.663 7.67 0 14.972-1.573 21.601-4.414l-0.358 0.136 118.272-42.086c2.396-1.039 5.173-1.766 8.082-2.040l0.11-0.008c0.030 0 0.066 0 0.102 0 9.162 0 16.589 7.427 16.589 16.589 0 0 0 0 0 0v0c-0.147 2.064-0.511 3.983-1.073 5.816l0.049-0.184zM642.867 162.304c-7.578-2.15-17.203-4.403-27.648-6.758-20.967-5.016-45.386-8.394-70.417-9.397l-0.751-0.024c-0.825-0.007-1.8-0.011-2.776-0.011-195.068 0-353.391 157.324-355.008 352.011l-0.001 0.154v1.843c0.229 15.99 1.338 31.465 3.284 46.679l-0.212-2.032c1.229 8.909 2.765 17.818 4.813 26.726s4.608 18.842 7.373 28.058l-17.203-14.643c-65.766-57.173-107.198-140.862-107.52-234.235v-0.057c0-0.188-0.001-0.41-0.001-0.632 0-63.715 19.397-122.899 52.608-171.97l-0.691 1.082c4.813-7.373 7.475-13.005 6.656-16.794s-24.883-129.741-24.883-129.741c-0.209-0.99-0.328-2.127-0.328-3.293 0-5.12 2.305-9.702 5.935-12.764l0.025-0.021c2.916-2.356 6.667-3.784 10.751-3.789h0.001c2.147 0.003 4.189 0.454 6.036 1.267l-0.097-0.038 117.35 46.285c3.706 1.578 8.018 2.496 12.544 2.496s8.838-0.918 12.759-2.577l-0.215 0.081c37.59-15.469 81.201-24.643 126.901-25.087l0.177-0.001c0.51-0.003 1.114-0.004 1.718-0.004 99.664 0 188.962 44.383 249.207 114.463l0.365 0.435s6.758 9.114 14.438 20.48c-7.68-3.174-16.384-5.837-25.19-8.192z" />
<glyph unicode="&#xe908;" glyph-name="check" d="M754.688 657.613c-5.276 5.165-12.506 8.352-20.48 8.352s-15.204-3.187-20.485-8.357l0.005 0.005-136.909-136.397-137.83-137.83-128.205 127.898c-5.303 5.316-12.635 8.605-20.736 8.605s-15.434-3.289-20.735-8.605l-40.961-40.961c-5.141-5.287-8.311-12.513-8.311-20.48s3.17-15.193 8.318-20.487l-0.007 0.007 189.85-190.976c5.265-5.189 12.498-8.393 20.48-8.393s15.215 3.204 20.484 8.396l-0.004-0.003 336.896 336.486c5.141 5.287 8.311 12.513 8.311 20.48s-3.17 15.193-8.318 20.487l0.007-0.007z" />
<glyph unicode="&#xe909;" glyph-name="check-o" d="M833.843 38.4h-643.686c-48.467 0-87.757 39.29-87.757 87.757v0 0 643.686c0 48.467 39.29 87.757 87.757 87.757v0h643.686c48.467 0 87.757-39.29 87.757-87.757v0-643.686c0-48.467-39.29-87.757-87.757-87.757v0zM459.571 217.702l336.486 336.486c5.141 5.287 8.311 12.513 8.311 20.48s-3.17 15.193-8.318 20.487l-40.953 40.953c-5.297 5.118-12.52 8.271-20.48 8.271s-15.183-3.153-20.488-8.279l0.008 0.008-137.318-135.578-137.83-137.933-128.205 128c-5.303 5.316-12.635 8.605-20.736 8.605s-15.434-3.289-20.735-8.605l-40.961-40.961c-5.141-5.287-8.311-12.513-8.311-20.48s3.17-15.193 8.318-20.487l-0.007 0.007 189.85-190.976c5.265-5.189 12.498-8.393 20.48-8.393s15.215 3.204 20.484 8.396l-0.004-0.003z" />
<glyph unicode="&#xe90a;" glyph-name="close" d="M92.199 673.258l163.859 163.859 655.362-655.362-163.859-163.859-655.362 655.362zM92.199 181.755l655.362 655.362 163.859-163.859-655.362-655.362-163.859 163.859z" />
<glyph unicode="&#xe90b;" glyph-name="conversation" d="M836.301 826.88h-665.6c-47.002 0-68.301-38.4-68.301-85.299v-733.901l136.499 136.499h597.402c47.052 0.232 85.126 38.342 85.299 85.385v512.017c-0.174 47.039-38.26 85.125-85.282 85.299h-0.017zM389.12 447.181h-81.92v85.299h81.92zM552.96 447.181h-81.92v85.299h81.92zM716.8 447.181h-81.92v85.299h81.92z" />
<glyph unicode="&#xe90c;" glyph-name="credit-card" d="M51.2 156.16c0-42.415 34.385-76.8 76.8-76.8v0h768c42.415 0 76.8 34.385 76.8 76.8v0 281.6h-921.6zM358.4 265.011c0 10.576 8.573 19.149 19.149 19.149h217.702c10.576 0 19.149-8.573 19.149-19.149v0-64c0 0 0 0 0 0 0-10.596-8.561-19.193-19.143-19.251h-217.708c-10.588 0.058-19.149 8.655-19.149 19.251 0 0 0 0 0 0v0zM153.6 265.011c0.058 10.588 8.655 19.149 19.251 19.149 0 0 0 0 0 0h115.098c0 0 0 0 0 0 10.596 0 19.193-8.561 19.251-19.143v-64.006c0-10.632-8.619-19.251-19.251-19.251v0h-115.098c-10.632 0-19.251 8.619-19.251 19.251v0zM972.8 719.36v-76.8h-921.6v76.8c0 42.415 34.385 76.8 76.8 76.8v0h768c42.415 0 76.8-34.385 76.8-76.8v0z" />
<glyph unicode="&#xe90d;" glyph-name="csv" d="M563.2 640v217.6h-320c-21.208 0-38.4-17.192-38.4-38.4v0-742.4c0-21.208 17.192-38.4 38.4-38.4v0h537.6c21.208 0 38.4 17.192 38.4 38.4v0 524.8h-217.6c-21.208 0-38.4 17.192-38.4 38.4v0zM409.6 409.6c0-7.069-5.731-12.8-12.8-12.8v0h-12.8c-14.138 0-25.6-11.462-25.6-25.6v0-51.2c0-14.138 11.462-25.6 25.6-25.6v0h12.8c7.069 0 12.8-5.731 12.8-12.8v0-25.6c0-7.069-5.731-12.8-12.8-12.8v0h-12.8c-42.415 0-76.8 34.385-76.8 76.8v0 51.2c0 42.415 34.385 76.8 76.8 76.8v0h12.8c7.069 0 12.8-5.731 12.8-12.8v0zM480.461 243.2h-19.661c-7.069 0-12.8 5.731-12.8 12.8v0 25.6c0 7.069 5.731 12.8 12.8 12.8v0h19.661c9.523 0 16.691 5.632 16.691 10.24-0.202 2.52-1.475 4.707-3.358 6.128l-0.022 0.016-35.123 30.106c-13.059 10.988-21.299 27.339-21.299 45.615 0 0.020 0 0.039 0 0.059v-0.003c1.918 34.366 30.254 61.508 64.929 61.508 1.042 0 2.078-0.025 3.108-0.073l-0.146 0.005h19.558c7.069 0 12.8-5.731 12.8-12.8v0-25.6c0-7.069-5.731-12.8-12.8-12.8v0h-19.661c-9.523 0-16.691-5.632-16.691-10.24 0.254-2.505 1.512-4.675 3.36-6.13l0.019-0.014 35.021-30.003c13.117-10.952 21.402-27.311 21.402-45.605 0-0.059 0-0.118 0-0.177v0.009c-1.977-34.373-30.333-61.499-65.025-61.499-0.972 0-1.939 0.021-2.9 0.063l0.137-0.005zM614.4 435.2v-33.28c0-0.048 0-0.105 0-0.162 0-33.614 9.527-65.003 26.029-91.614l-0.429 0.743c16.073 25.868 25.6 57.257 25.6 90.871 0 0.057 0 0.114 0 0.171v-0.009 33.28c0 7.069 5.731 12.8 12.8 12.8v0h25.6c7.069 0 12.8-5.731 12.8-12.8v0-33.28c0.004-0.471 0.006-1.027 0.006-1.584 0-57.523-22.071-109.89-58.206-149.097l0.139 0.153c-4.687-5.026-11.348-8.16-18.74-8.16-6.73 0-12.853 2.597-17.423 6.843l0.016-0.015c-0.498 0.397-0.935 0.834-1.318 1.315l-0.013 0.016c-35.996 39.054-58.067 91.421-58.067 148.944 0 0.557 0.002 1.114 0.006 1.67v-0.085 33.28c0 7.069 5.731 12.8 12.8 12.8v0h25.6c7.069 0 12.8-5.731 12.8-12.8v0zM808.038 689.562l-156.672 156.774c-6.843 6.867-16.273 11.151-26.705 11.264h-10.262v-204.8h204.8v9.728c0 0.015 0 0.033 0 0.051 0 10.535-4.265 20.073-11.162 26.983l0.001-0.001z" />
<glyph unicode="&#xe90e;" glyph-name="download" d="M837.939 600.064c-14.541 118.17-129.024 210.125-268.39 210.125-1.486 0.028-3.239 0.044-4.996 0.044-87.037 0-164.888-39.329-216.751-101.186l-0.359-0.439c-14.186 5.255-30.573 8.296-47.67 8.296-0.233 0-0.466-0.001-0.699-0.002h0.036c-1.151 0.038-2.505 0.060-3.864 0.060-65.67 0-119.525-50.587-124.722-114.919l-0.029-0.443c-66.91-16.777-116.196-74.978-119.284-145.18l-0.012-0.33c0-78.848 73.216-148.378 163.84-148.378h273.51v221.389c1.751 11.486 11.559 20.184 23.398 20.184s21.647-8.698 23.382-20.052l0.017-0.131v-221.389h273.613c90.419 0 163.84 69.53 163.84 148.378-4.268 74.661-61.261 134.786-134.108 143.898l-0.753 0.077zM481.28 108.339l-113.766 112.64c-5.585 5.534-13.273 8.954-21.76 8.954-17.076 0-30.918-13.843-30.918-30.918 0-8.589 3.502-16.36 9.156-21.963l0.002-0.002 166.298-163.84c5.541-5.455 13.15-8.823 21.546-8.823 4.272 0 8.34 0.872 12.037 2.448l-0.201-0.076c3.738 1.715 6.949 3.877 9.752 6.473l-0.024-0.022 166.298 163.84c5.937 5.647 9.629 13.605 9.629 22.426 0 17.081-13.847 30.928-30.928 30.928-8.261 0-15.765-3.238-21.312-8.515l0.013 0.012-0.819-0.922-113.562-112.64v199.373h-61.44z" />
<glyph unicode="&#xe90f;" glyph-name="edit" d="M705.638 750.182l136.294-136.294c2.582-2.638 4.176-6.253 4.176-10.24s-1.593-7.602-4.178-10.243l0.003 0.003-329.933-330.445-140.186-15.565c-0.981-0.116-2.117-0.182-3.269-0.182-15.089 0-27.531 11.331-29.281 25.949l-0.014 0.14c-0.098 0.982-0.154 2.123-0.154 3.277s0.056 2.295 0.165 3.42l-0.011-0.143 15.565 140.288 330.035 330.035c2.665 2.649 6.338 4.286 10.394 4.286s7.729-1.637 10.394-4.287l-0.001 0.001zM950.477 784.794l-73.728 73.728c-10.698 10.637-25.445 17.212-41.728 17.212s-31.030-6.575-41.731-17.215l-53.552-53.552c-2.536-2.659-4.096-6.267-4.096-10.24s1.56-7.581 4.102-10.246l-0.006 0.006 136.294-136.704c2.659-2.536 6.267-4.096 10.24-4.096s7.581 1.56 10.246 4.102l53.549 53.549c10.637 10.698 17.212 25.445 17.212 41.728s-6.575 31.030-17.215 41.731l0.003-0.003zM677.581 352.768v-153.6h-483.635v483.328h347.341c5.030 0.028 9.582 2.055 12.905 5.327l60.414 60.414c3.15 3.257 5.092 7.699 5.092 12.596 0 9.964-8.041 18.050-17.987 18.124h-431.93c-39.922-0.115-72.267-32.389-72.499-72.272v-532.502c0-40.040 32.459-72.499 72.499-72.499v0h532.48c40.040 0 72.499 32.459 72.499 72.499v0 239.104c0 0.030 0 0.066 0 0.102 0 9.953-8.069 18.022-18.022 18.022 0 0 0 0 0 0v0c-0.059 0.001-0.128 0.001-0.197 0.001-4.973 0-9.471-2.038-12.703-5.323l-0.002-0.002-60.928-60.006c-3.29-3.282-5.325-7.819-5.325-12.832 0-0.025 0-0.049 0-0.074v0.004z" />
<glyph unicode="&#xe910;" glyph-name="excel" d="M906.342 751.718h-274.534v-51.2h80.896v-80.486h-80.896v-25.6h80.896v-80.384h-80.896v-26.317h80.896v-75.571h-80.896v-30.72h80.896v-76.288h-80.896v-30.72h80.896v-76.698h-80.896v-56.013h274.534c4.301 1.331 7.987 6.451 10.854 15.36 2.452 6.564 4.035 14.151 4.397 22.056l0.006 0.164v563.2c0 4.403-1.536 7.066-4.403 7.987-2.929 0.79-6.292 1.244-9.761 1.244-0.384 0-0.768-0.006-1.149-0.017l0.056 0.001zM870.4 198.246h-131.277v76.698h131.277zM870.4 305.357h-131.277v76.288h131.277zM870.4 412.16h-131.277v75.776h131.277zM870.4 514.56h-131.277v80.384h131.277zM870.4 621.056h-131.277v79.872h131.277v-79.872zM102.4 764.416v-634.88l483.328-83.558v804.147l-483.328-86.016zM389.12 284.16q-2.765 7.578-25.907 63.693c-15.053 37.274-24.781 59.187-27.443 65.229h-0.819l-51.917-122.88-69.325 4.198 81.92 153.6-74.957 153.6 70.656 3.686 46.592-120.218h0.922l52.736 125.645 73.011 4.608-86.835-166.195 89.6-169.574-78.234 4.608z" />
<glyph unicode="&#xe911;" glyph-name="history" d="M947.2 448.922c0-0.234 0.001-0.511 0.001-0.789 0-240.411-194.892-435.302-435.302-435.302-103.797 0-199.109 36.329-273.914 96.965l0.812-0.638c-9.527 7.796-15.559 19.555-15.559 32.723 0 10.104 3.552 19.379 9.476 26.643l-0.060-0.076c0.939 1.106 1.875 2.107 2.857 3.062l19.773 19.773c7.631 7.705 18.212 12.475 29.908 12.475 9.855 0 18.919-3.387 26.091-9.061l-0.088 0.067c54.536-43.533 124.478-69.854 200.568-69.854 178.315 0 322.867 144.553 322.867 322.867s-144.553 322.867-322.867 322.867c-85.605 0-163.429-33.316-221.213-87.689l0.165 0.154 89.19-89.088c5.093-5.080 8.244-12.105 8.244-19.866 0-15.496-12.562-28.058-28.058-28.058-0.018 0-0.036 0-0.055 0h-255.178c0 0 0 0-0.001 0-15.496 0-28.058 12.562-28.058 28.058 0 0.072 0 0.144 0.001 0.216v-0.011 255.181c0 15.496 12.562 28.058 28.058 28.058v0c0.010 0 0.023 0 0.035 0 7.759 0 14.777-3.173 19.827-8.291l86.633-86.633c77.988 74.613 183.954 120.541 300.647 120.541 240.036 0 434.684-194.33 435.199-434.245v-0.049zM629.76 310.579l17.203 22.221c5.513 7.061 8.84 16.062 8.84 25.841 0 13.462-6.305 25.45-16.122 33.175l-0.090 0.069-71.68 55.603v183.091c0 23.244-18.843 42.086-42.086 42.086v0h-27.853c-23.244 0-42.086-18.843-42.086-42.086v0 0-238.080l114.688-89.293c7.061-5.513 16.062-8.84 25.841-8.84 13.462 0 25.45 6.305 33.175 16.122l0.069 0.090z" />
<glyph unicode="&#xe912;" glyph-name="image" d="M229.581 337.101h375.603c6.019 0.115 10.854 5.021 10.854 11.057 0 0.001 0 0.001 0 0.002v0c0 0.030 0.001 0.066 0.001 0.102 0 2.317-0.77 4.454-2.067 6.17l0.019-0.026-187.904 302.182c-1.986 2.835-5.238 4.665-8.917 4.665-2.293 0-4.419-0.711-6.172-1.924l0.036 0.024c-1.112-0.775-2.060-1.689-2.844-2.733l-0.023-0.032-187.597-302.182c-1.229-1.757-1.964-3.939-1.964-6.292 0-3.738 1.855-7.043 4.694-9.045l0.035-0.023c1.751-1.203 3.912-1.928 6.242-1.946h0.004zM611.84 451.379l68.915-109.773c1.968-2.877 5.213-4.756 8.9-4.813h104.764c6.008 0.057 10.856 4.94 10.856 10.956 0 0.072-0.001 0.144-0.002 0.216v-0.011c0 0.030 0.001 0.066 0.001 0.102 0 2.317-0.77 4.454-2.067 6.17l0.019-0.026-121.242 172.749c-1.998 2.921-5.314 4.813-9.072 4.813-2.267 0-4.374-0.689-6.122-1.868l0.039 0.025c-1.104-0.775-2.025-1.728-2.741-2.828l-0.024-0.040-52.429-63.181c-1.11-1.725-1.77-3.831-1.77-6.091 0-2.391 0.738-4.61 1.999-6.44l-0.025 0.038zM699.29 621.466c28.194 2.83 50.022 26.434 50.022 55.137 0 30.596-24.803 55.398-55.398 55.398s-55.398-24.803-55.398-55.398c0-28.703 21.828-52.307 49.79-55.118l0.232-0.019c1.611-0.147 3.483-0.23 5.376-0.23s3.765 0.084 5.615 0.247l-0.239-0.017zM858.624 857.6h-693.248c0 0 0 0 0 0-34.745 0-62.918-28.137-62.976-62.868v-693.254c0-0.030 0-0.066 0-0.102 0-34.745 28.137-62.918 62.868-62.976h693.355c0 0 0 0 0 0 34.745 0 62.918 28.137 62.976 62.868v693.356c0 0 0 0 0 0 0 34.745-28.137 62.918-62.868 62.976h-0.006zM853.299 306.176c-0.058-8.686-7.084-15.712-15.764-15.77h-651.064c-8.686 0.058-15.712 7.084-15.77 15.764v467.359c0.058 8.686 7.084 15.712 15.764 15.77h651.269c8.686-0.058 15.712-7.084 15.77-15.764v-467.359z" />
<glyph unicode="&#xe913;" glyph-name="inbox" d="M512 168.243c-0.049 0-0.107 0-0.166 0-31.647 0-60.899 10.255-84.615 27.622l0.403-0.281-376.422 271.872v-383.59c0-47.732 38.694-86.426 86.426-86.426h748.749c47.732 0 86.426 38.694 86.426 86.426v0 0 383.59l-376.422-271.872c-23.313-17.086-52.565-27.341-84.212-27.341-0.058 0-0.116 0-0.175 0h0.009zM939.725 625.766c-15.872 12.493-30.72 24.269-53.35 40.96v79.462c0 47.732-38.694 86.426-86.426 86.426v0h-139.571l-16.282 11.878c-29.696 22.016-90.317 75.162-132.096 74.547s-102.4-52.531-132.096-74.547l-16.282-11.878h-139.674c-47.688-0.058-86.323-38.73-86.323-86.426 0 0 0 0 0 0v0-79.36c-22.323-16.794-37.478-28.57-53.35-40.96-20.214-15.908-33.076-40.374-33.076-67.844 0-0.089 0-0.177 0-0.266v0.014-19.251l172.749-124.826v332.493h576v-332.493l172.851 124.826v19.251c0 0 0 0 0 0 0 27.515-12.858 52.027-32.893 67.855l-0.182 0.139zM712.294 481.997c0-106.378-86.236-192.614-192.614-192.614s-192.614 86.236-192.614 192.614c0 106.378 86.236 192.614 192.614 192.614 0.036 0 0.072 0 0.108 0h-0.006c106.321 0 192.512-86.191 192.512-192.512 0-0.036 0-0.072 0-0.108v0.006zM485.581 572.109v-90.112h-54.989c-0.009 0-0.021 0-0.032 0-5.146 0-9.318-4.172-9.318-9.318 0-2.556 1.029-4.871 2.695-6.554l-0.001 0.001 89.293-88.781c1.683-1.665 3.998-2.694 6.554-2.694s4.871 1.029 6.554 2.695l-0.001-0.001 89.293 88.781c1.665 1.683 2.694 3.998 2.694 6.554 0 5.122-4.132 9.278-9.244 9.318h-55.198v90.112c0 5.090-4.126 9.216-9.216 9.216h-49.766c0 0 0 0-0.001 0-5.11 0-9.26-4.114-9.318-9.211v-0.005z" />
<glyph unicode="&#xe914;" glyph-name="like" d="M268.8 509.44h-128c-21.208 0-38.4-17.192-38.4-38.4v0 0-384c0-21.208 17.192-38.4 38.4-38.4v0h128c21.208 0 38.4 17.192 38.4 38.4v0 384c0 21.208-17.192 38.4-38.4 38.4v0zM204.8 112.64c-21.208 0-38.4 17.192-38.4 38.4s17.192 38.4 38.4 38.4c21.208 0 38.4-17.192 38.4-38.4v0c0-21.208-17.192-38.4-38.4-38.4v0zM716.8 737.28c0-67.789-41.574-105.882-53.248-151.245h162.714c51.722-0.092 93.796-41.27 95.331-92.633l0.003-0.142c0-0.048 0-0.105 0-0.162 0-30.331-11.68-57.934-30.789-78.556l0.069 0.075c6.074-14.693 9.601-31.754 9.601-49.638 0-29.192-9.396-56.189-25.329-78.132l0.266 0.385c3.341-10.809 5.265-23.235 5.265-36.11 0-32.063-11.932-61.339-31.598-83.63l0.119 0.137c2.385-7.472 3.759-16.066 3.759-24.981 0-17.386-5.226-33.551-14.194-47.009l0.195 0.311c-32.256-46.694-113.152-47.309-181.658-47.309h-4.506c-70.392 3.235-135.762 21.8-193.795 52.407l2.511-1.207c-24.445 12.791-52.904 21.924-83.014 25.776l-1.261 0.132c-10.302 0.168-18.616 8.446-18.841 18.718v342.037c0.008 5.366 2.199 10.22 5.733 13.72l0.002 0.001c63.386 62.566 90.624 128.922 142.541 180.941 21.114 25.962 35.71 58.027 40.835 93.165l0.125 1.043c7.066 29.594 22.016 92.16 54.272 92.16 38.093 0.307 114.893-12.493 114.893-130.048z" />
<glyph unicode="&#xe915;" glyph-name="mail" d="M955.29 565.35c1.819 1.424 4.139 2.283 6.66 2.283 3.489 0 6.594-1.646 8.579-4.204l0.018-0.025c1.404-1.738 2.254-3.974 2.254-6.409 0-0.051 0-0.101-0.001-0.152v0.008-368.026c0-47.732-38.694-86.426-86.426-86.426v0h-748.749c-47.732 0-86.426 38.694-86.426 86.426v0 367.923c-0.008 0.153-0.013 0.332-0.013 0.512 0 5.655 4.585 10.24 10.24 10.24 0.005 0 0.009 0 0.014 0h-0.001c0.036 0 0.079 0.001 0.122 0.001 2.492 0 4.775-0.89 6.551-2.369l-0.016 0.013c40.346-31.334 93.798-71.066 277.402-204.8 37.99-27.75 102.4-86.118 165.99-85.709s129.638 58.982 166.093 85.709c184.115 133.734 237.466 173.67 277.709 205.005zM512 332.8c41.779-0.717 102.4 52.531 132.096 74.547 238.899 173.261 257.024 188.416 312.115 231.629 10.136 7.924 16.591 20.152 16.591 33.888 0 0.146-0.001 0.292-0.002 0.438v-0.022 33.894c0 47.732-38.694 86.426-86.426 86.426v0h-748.749c-47.732 0-86.426-38.694-86.426-86.426v0-33.894c0.030-13.762 6.472-26.013 16.497-33.927l0.092-0.070c55.091-43.315 73.216-58.675 312.115-232.243 30.208-21.709 90.317-74.957 132.096-74.24z" />
<glyph unicode="&#xe916;" glyph-name="main-open" d="M368.026 529.92h287.949c0.030 0 0.066 0 0.102 0 15.892 0 28.774 12.883 28.774 28.774 0 0 0 0 0 0v0 29.082c0 15.948-12.929 28.877-28.877 28.877v0h-287.949c0 0 0 0 0 0-15.892 0-28.774-12.883-28.774-28.774 0-0.036 0-0.072 0-0.108v0.006-28.774c-0.001-0.091-0.002-0.199-0.002-0.307 0-15.892 12.883-28.774 28.774-28.774 0.001 0 0.001 0 0.002 0v0zM339.251 386.56c0-0.030 0-0.066 0-0.102 0-15.892 12.883-28.774 28.774-28.774 0 0 0 0 0 0h287.949c15.948 0 28.877 12.929 28.877 28.877v0 28.467c0 0 0 0 0 0 0 15.892-12.883 28.774-28.774 28.774-0.036 0-0.072 0-0.108 0h-287.943c-15.892 0-28.774-12.883-28.774-28.774v0zM512 168.243c-0.049 0-0.107 0-0.166 0-31.647 0-60.899 10.255-84.615 27.622l0.403-0.281-376.422 271.872v-383.59c0-47.732 38.694-86.426 86.426-86.426h748.749c47.732 0 86.426 38.694 86.426 86.426v0 0 383.59l-376.422-271.872c-23.313-17.086-52.565-27.341-84.212-27.341-0.058 0-0.116 0-0.175 0h0.009zM939.725 625.766c-15.974 12.493-30.72 24.166-53.35 40.96v79.462c0 47.696-38.636 86.367-86.318 86.426h-139.577l-16.282 11.776c-29.798 22.118-90.419 75.264-132.198 74.65s-102.4-52.531-132.096-74.65l-16.282-11.776h-139.571c-47.732 0-86.426-38.694-86.426-86.426v0 0-79.36c-22.323-16.794-37.376-28.57-53.35-40.96-20.215-15.928-33.075-40.409-33.075-67.894 0-0.071 0-0.142 0-0.213v0.011-19.251l172.851-124.826v332.493h576v-332.493l172.749 124.826v19.251c0 0 0 0 0 0 0 27.515-12.858 52.027-32.893 67.855l-0.182 0.139z" />
<glyph unicode="&#xe917;" glyph-name="menu-small" d="M51.2 669.184h921.6v-110.592h-921.6v110.592zM51.2 503.296h921.6v-110.592h-921.6v110.592zM51.2 337.408h921.6v-110.592h-921.6v110.592z" />
<glyph unicode="&#xe918;" glyph-name="pdf" d="M495.821 448c-7.987 25.6-7.782 75.162-3.174 75.162 13.414-0.307 12.186-59.29 3.174-75.162zM493.158 372.531c-14.572-39.441-29.881-72.522-47.419-104.198l1.953 3.846c28.286 13.242 61.794 25.26 96.53 34.219l4.13 0.904c-22.588 17.563-41.097 39.21-54.657 63.956l-0.536 1.068zM342.528 172.646c0-1.229 21.197 8.602 55.91 64.307-10.752-10.035-46.592-39.219-55.91-64.307zM601.6 601.6h217.6v-524.8c0-0.030 0-0.066 0-0.103 0-21.115-17.088-38.239-38.19-38.297h-537.811c-0.030 0-0.066 0-0.103 0-21.115 0-38.239 17.088-38.297 38.19v742.611c0 0.030 0 0.066 0 0.103 0 21.115 17.088 38.239 38.19 38.297h320.211v-217.6c0.058-21.184 17.216-38.342 38.394-38.4h0.006zM588.8 326.758c-31.842 19.799-55.878 49.57-67.964 84.885l-0.336 1.131c7.27 29.594 18.534 74.547 10.24 102.4-7.475 47.104-67.789 42.394-76.493 10.957-7.987-29.286-0.614-70.554 13.005-122.88-23.35-56.187-45.246-101.328-69.26-145.143l3.929 7.825c-43.315-22.221-117.76-71.68-87.142-108.851 8.348-9.261 20.076-15.337 33.224-16.273l0.158-0.009c28.57 0 57.139 28.774 97.69 98.816 34.783 13.652 77.213 26.516 120.826 36.243l6.048 1.133c29.501-16.959 64.4-28.022 101.625-30.676l0.775-0.044c0.397-0.014 0.863-0.022 1.331-0.022 22.622 0 40.96 18.338 40.96 40.96 0 0.008 0 0.015 0 0.023v-0.001c-0.034 10.686-4.154 20.402-10.879 27.675l0.025-0.027c-22.221 22.118-86.938 15.872-117.76 11.878zM808.038 689.562l-156.877 156.877c-6.94 6.898-16.506 11.162-27.067 11.162-0.024 0-0.048 0-0.073 0h-9.622v-204.8h204.8v9.728c0 0.015 0 0.033 0 0.051 0 10.535-4.265 20.073-11.162 26.983l0.001-0.001zM689.459 281.088c6.554 4.403-3.994 19.046-68.506 14.438 59.392-25.293 68.506-14.438 68.506-14.438z" />
<glyph unicode="&#xe919;" glyph-name="save" d="M919.859 692.941l-162.918 162.918c-16.899 16.893-40.241 27.341-66.024 27.341-0.009 0-0.017 0-0.026 0h-520.805c-51.521 0-93.286-41.766-93.286-93.286v0-683.827c0-51.521 41.766-93.286 93.286-93.286v0h683.827c51.521 0 93.286 41.766 93.286 93.286v0 520.909c-0.010 25.756-10.457 49.071-27.34 65.945v0zM512 137.114c-0.030 0-0.066 0-0.102 0-68.713 0-124.416 55.703-124.416 124.416s55.703 124.416 124.416 124.416c68.713 0 124.416-55.703 124.416-124.416v0c0-0.030 0-0.066 0-0.102 0-68.657-55.657-124.314-124.314-124.314v0zM698.47 728.781v-195.277c0 0 0 0 0 0 0-12.858-10.395-23.289-23.239-23.347h-450.566c-12.894 0-23.347 10.453-23.347 23.347v0 0 202.035c0 12.894 10.453 23.347 23.347 23.347v0h443.802c6.442-0.013 12.27-2.633 16.486-6.86l6.759-6.759c4.164-4.247 6.739-10.064 6.758-16.483v-0.004z" />
<glyph unicode="&#xe91a;" glyph-name="send" d="M919.859 881.254l-832.307-362.701c-6.396-3.191-10.712-9.686-10.712-17.19 0-7.782 4.642-14.479 11.308-17.475l0.121-0.049 225.28-127.181c5.139-2.927 11.291-4.652 17.846-4.652 9.079 0 17.386 3.31 23.778 8.789l-0.049-0.041 443.597 382.669c2.97 2.458 10.24 7.27 12.8 4.608s-1.638-9.728-4.096-12.698l-384.102-432.64c-5.63-6.357-9.067-14.768-9.067-23.982 0-7.17 2.081-13.853 5.673-19.479l-0.087 0.146 147.046-235.52c3.165-6.469 9.699-10.844 17.254-10.844s14.089 4.376 17.204 10.732l0.050 0.113 344.064 832.205c1.133 2.365 1.795 5.141 1.795 8.071 0 10.519-8.527 19.046-19.046 19.046-3.038 0-5.911-0.711-8.459-1.977l0.111 0.050z" />
<glyph unicode="&#xe91b;" glyph-name="success" d="M947.2 448c0-240.354-194.846-435.2-435.2-435.2s-435.2 194.846-435.2 435.2c0 240.354 194.846 435.2 435.2 435.2v0c240.354 0 435.2-194.846 435.2-435.2v0zM461.619 217.6l322.97 322.56c5.068 5.091 8.201 12.113 8.201 19.866s-3.133 14.774-8.203 19.867l0.001-0.001-39.731 39.629c-5.080 5.093-12.105 8.244-19.866 8.244s-14.786-3.151-19.865-8.243l-0.001-0.001-263.27-262.963-122.88 122.88c-5.091 5.068-12.113 8.201-19.866 8.201s-14.774-3.133-19.867-8.203l-39.833-39.628c-5.068-5.091-8.201-12.113-8.201-19.866s3.133-14.774 8.203-19.867l182.578-182.476c5.064-5.087 12.071-8.235 19.814-8.235s14.751 3.148 19.813 8.234l0.001 0.001z" />
<glyph unicode="&#xe91c;" glyph-name="tools" d="M904.192 225.485l-187.392 187.085c-21.443 21.366-51.026 34.577-83.694 34.577-19.202 0-37.338-4.564-53.382-12.667l0.679 0.311-169.984 170.291v98.918l-204.8 153.6-102.4-102.4 153.6-204.8h99.123l170.598-169.779c-7.772-15.372-12.324-33.51-12.324-52.711 0-32.692 13.196-62.302 34.551-83.795l186.976-186.976c10.747-10.74 25.59-17.383 41.984-17.383s31.237 6.643 41.984 17.383v0l84.378 83.661c10.728 10.791 17.359 25.664 17.359 42.086s-6.631 31.296-17.361 42.089l0.003-0.003zM633.549 498.176c0.123 0 0.268 0.001 0.413 0.001 46.614 0 88.803-18.945 119.287-49.556l30.726-30.726c27.148 11.755 50.343 27.633 69.951 47.115l-0.012-0.011c41.809 41.605 67.682 99.19 67.682 162.819 0 19.782-2.501 38.98-7.204 57.295l0.347-1.592c-2.198 8.392-9.713 14.482-18.651 14.482-1.631 0-3.214-0.203-4.727-0.585l0.133 0.028c-3.494-0.979-6.495-2.754-8.912-5.123l-118.781-118.781-108.442 17.818-18.125 108.237 118.886 118.886c3.463 3.496 5.603 8.308 5.603 13.619s-2.14 10.124-5.604 13.621l0.001-0.001c-2.431 2.369-5.476 4.119-8.874 4.988l-0.137 0.030c-16.676 4.321-35.821 6.802-55.544 6.802-63.516 0-121.023-25.724-162.672-67.322l0.002 0.002c-40.735-41.008-65.912-97.515-65.912-159.902 0-1.961 0.025-3.915 0.074-5.864l-0.006 0.288 130.867-131.174c11.811 2.928 25.371 4.608 39.323 4.608 0.035 0 0.071 0 0.106 0h-0.005zM467.661 367.206l-90.624 90.522-243.405-243.507c-21.674-18.878-35.295-46.522-35.295-77.348 0-56.554 45.846-102.4 102.4-102.4 29.551 0 56.178 12.517 74.869 32.539l0.055 0.060c0.819 0.819 1.741 1.638 2.56 2.56l197.325 197.53c-7.589 18.632-11.994 40.249-11.994 62.895 0 13.204 1.497 26.057 4.331 38.401l-0.222-1.149zM206.029 103.629c-21.151 0-38.298 17.146-38.298 38.298s17.146 38.298 38.298 38.298c21.151 0 38.298-17.146 38.298-38.298v0c0-21.151-17.146-38.298-38.298-38.298v0z" />
<glyph unicode="&#xe91d;" glyph-name="warning" d="M512 883.2c-240.354 0-435.2-194.846-435.2-435.2s194.846-435.2 435.2-435.2c240.354 0 435.2 194.846 435.2 435.2v0c0 240.354-194.846 435.2-435.2 435.2v0zM555.52 230.4h-87.040v87.040h87.040zM555.52 404.48h-87.040v261.12h87.040z" />
<glyph unicode="&#xe91e;" glyph-name="warning-triangle" d="M455.168 816.64l-370.688-676.557c-4.823-8.763-7.66-19.205-7.66-30.31 0-24.038 13.295-44.971 32.933-55.847l0.327-0.166c8.839-4.836 19.364-7.68 30.554-7.68 0.059 0 0.117 0 0.176 0h742.084c0.183-0.002 0.4-0.003 0.616-0.003 34.998 0 63.402 28.227 63.691 63.156v0.027c0.001 0.098 0.001 0.215 0.001 0.331 0 11.122-2.806 21.589-7.748 30.731l0.169-0.343-370.995 676.659c-11.31 20.042-32.465 33.353-56.73 33.353s-45.419-13.311-56.561-33.029l-0.168-0.324zM548.762 535.859l-7.578-255.386h-58.573l-7.475 255.386zM512 141.517c-20.593 0.848-36.966 17.748-36.966 38.472 0 21.264 17.238 38.502 38.502 38.502 21.254 0 38.485-17.221 38.502-38.47v-0.002c-0.23-21.315-17.563-38.505-38.91-38.505-0.145 0-0.289 0.001-0.434 0.002h0.022z" />
<glyph unicode="&#xe91f;" glyph-name="world" d="M512 908.8c-254.493 0-460.8-206.307-460.8-460.8s206.307-460.8 460.8-460.8c254.493 0 460.8 206.307 460.8 460.8v0 0c0 254.493-206.307 460.8-460.8 460.8v0zM664.883 244.326l-21.094-20.48c-5.351-5.378-9.339-12.119-11.396-19.656l-0.073-0.312c-2.765-10.24-5.12-21.094-8.909-31.334l-32.256-87.040c-23.789-5.453-51.131-8.62-79.199-8.704h-0.059v51.2c-1.414 37.254-17.253 70.554-42.055 94.689l-0.031 0.031c-10.756 10.765-17.408 25.631-17.408 42.051 0 0.012 0 0.025 0 0.037v-0.002 59.187c-0.021 22.277-12.282 41.686-30.42 51.865l-0.3 0.155c-26.726 14.746-64.717 35.43-90.726 48.538-22.379 11.471-41.661 24.902-58.898 40.545l0.223-0.199-1.434 1.434c-12.585 11.347-23.651 23.974-33.121 37.782l-0.466 0.72c-17.51 25.6-45.875 67.686-64.307 95.13 38.954 85.051 106.277 151.512 189.613 188.395l2.387 0.943 44.646-22.323c3.886-1.988 8.476-3.152 13.339-3.152 11.556 0 21.576 6.578 26.519 16.194l0.078 0.167c1.945 3.852 3.11 8.387 3.174 13.189v20.501c13.18 2.303 28.778 3.919 44.642 4.488l0.618 0.018 52.634-52.531c5.352-5.401 8.658-12.836 8.658-21.043s-3.307-15.642-8.661-21.045l-8.702-8.702-19.661-18.739c-2.685-2.687-4.346-6.397-4.346-10.496s1.661-7.809 4.346-10.496l8.704-8.704c2.716-2.692 4.397-6.423 4.397-10.547s-1.681-7.856-4.396-10.546l-14.849-14.849c-2.61-2.646-6.232-4.289-10.238-4.301h-16.693c-4.006-0.024-7.624-1.664-10.239-4.3l-18.126-18.126c-2.783-2.718-4.508-6.507-4.508-10.699 0-2.406 0.568-4.679 1.578-6.692l-0.039 0.086 29.082-57.958c1.131-2.046 1.797-4.485 1.797-7.080 0-5.876-3.413-10.954-8.364-13.361l-0.088-0.039c-1.903-0.969-4.15-1.536-6.529-1.536-0.009 0-0.017 0-0.026 0h-10.239c-0.142-0.005-0.31-0.008-0.478-0.008-3.751 0-7.175 1.401-9.777 3.708l0.015-0.013-17.613 15.462c-5.17 4.522-11.982 7.28-19.439 7.28-3.377 0-6.622-0.566-9.646-1.608l0.208 0.062-57.856-19.251c-8.923-3.059-15.222-11.376-15.222-21.164 0-2.464 0.399-4.835 1.137-7.051l-0.045 0.158c1.966-5.654 5.934-10.187 11.036-12.843l0.126-0.060 20.48-10.24c16.351-8.266 35.643-13.108 56.067-13.108 0.125 0 0.25 0 0.375 0.001h-0.019c19.558 0 41.984-50.688 59.494-59.392h124.006c16.423-0.050 31.285-6.689 42.090-17.412l-0.004 0.004 25.395-25.6c10.248-10.246 16.587-24.402 16.589-40.038v0c0-0.030 0-0.066 0-0.102 0-23.971-9.747-45.665-25.494-61.335l-0.003-0.003zM826.163 414.106c-11.041 2.789-20.214 9.429-26.216 18.375l-0.101 0.16-33.382 50.176c-4.721 6.94-7.537 15.506-7.537 24.73s2.816 17.789 7.636 24.884l-0.099-0.155 36.352 54.579c4.386 6.279 10.18 11.285 16.942 14.629l0.261 0.117 23.962 11.981c25.157-47.866 39.92-104.586 39.92-164.754 0-17.048-1.185-33.819-3.478-50.235l0.217 1.894z" />
</font>
</defs>
</svg>
